<?xml version="1.0" encoding="UTF-8"?>
<svg enable-background="new 0 0 122.88 112.48" version="1.1" viewBox="0 0 122.88 112.48" xml:space="preserve" xmlns="http://www.w3.org/2000/svg"><style type="text/css"><![CDATA[
	.st0{fill:#262626;}
	.st1{fill:#F86464;}
	.st2{fill-rule:evenodd;clip-rule:evenodd;fill:#8BBCDB;}
	.st3{fill:#61C4F2;}
	.st4{fill:#324768;}
	.st5{fill-rule:evenodd;clip-rule:evenodd;fill:#FFFFFF;}
]]></style><path class="st4" d="m84.94 56.56h16.2c1.26 0 2.29 1.02 2.29 2.29v11.78c0 0.45-0.01 0.26-0.02 0.84-0.01 0.47-0.01 0.73 0 0.77 0.02 0.06 0.2 0.35 0.61 0.97l16.95 26.07 0.1 0.14c1.26 2.02 1.85 4.06 1.8 5.88-0.03 1.15-0.29 2.22-0.8 3.15-0.52 0.97-1.28 1.79-2.27 2.4-1.22 0.76-2.79 1.19-4.66 1.18l-0.17 0.01h-40.1-1.09c-2.81 0.05-5.5 0.1-8.1-2.18-1.47-1.29-2.32-3.02-2.3-5.08 0.01-1.69 0.62-3.54 2-5.48 5.56-8.7 11.65-17.65 16.91-26.47 0.27-0.42 0.36-0.51 0.38-0.56 0.01-0.05-0.02-0.11-0.02-0.41v-0.61l0.01-12.22c-0.01-0.07-0.01-0.13-0.01-0.2 0-1.25 1.03-2.27 2.29-2.27z"/><path class="st5" d="m101.14 58.85h-16.2l-0.01 12.42c0 1.77 0.14 1.48-0.81 2.97l-16.87 26.4c-2.28 3.2-1.91 5.87-0.04 7.51 2.24 1.98 4.92 1.61 7.68 1.61h40.1c5.5 0.12 7.12-4.35 4.15-9.13l-16.87-25.93c-1.32-2.03-1.13-1.63-1.13-4.06v-11.79z"/><path class="st2" d="m72.69 92.08-5.47 8.56c-2.28 3.2-1.91 5.87-0.04 7.51 2.24 1.98 4.92 1.61 7.68 1.61h40.1c5.5 0.12 7.12-4.35 4.15-9.13l-5.56-8.55h-40.86z"/><path class="st0" d="m80.16 80.65c-0.61 0-1.1-0.49-1.1-1.1s0.49-1.1 1.1-1.1h4.33c0.61 0 1.1 0.49 1.1 1.1s-0.49 1.1-1.1 1.1h-4.33z"/><path class="st0" d="m77.17 85.44c-0.61 0-1.1-0.49-1.1-1.1s0.49-1.1 1.1-1.1h5.54c0.61 0 1.1 0.49 1.1 1.1s-0.49 1.1-1.1 1.1h-5.54z"/><path class="st4" d="m100.41 98.57c1.35 0 2.57 0.55 3.46 1.43 0.88 0.89 1.43 2.11 1.43 3.46s-0.55 2.57-1.43 3.46-2.11 1.43-3.46 1.43c-1.34 0-2.57-0.55-3.45-1.44-0.88-0.88-1.43-2.11-1.43-3.46s0.55-2.57 1.43-3.46c0.88-0.87 2.1-1.42 3.45-1.42z"/><path class="st2" d="m100.41 100.03c1.89 0 3.42 1.53 3.42 3.42s-1.53 3.42-3.42 3.42-3.42-1.53-3.42-3.42 1.53-3.42 3.42-3.42z"/><path class="st4" d="m112.04 98.52c0.77 0 1.46 0.31 1.96 0.81s0.81 1.2 0.81 1.96-0.31 1.46-0.81 1.96-1.2 0.81-1.96 0.81-1.46-0.31-1.96-0.81-0.81-1.2-0.81-1.96 0.31-1.46 0.81-1.96 1.19-0.81 1.96-0.81z"/><path class="st2" d="m112.04 99.98c0.72 0 1.31 0.59 1.31 1.31s-0.59 1.31-1.31 1.31-1.31-0.59-1.31-1.31 0.59-1.31 1.31-1.31z"/><path class="st4" d="m101.74 86.16c1.06 0 2.02 0.43 2.72 1.13l0.09 0.1c0.64 0.69 1.04 1.61 1.04 2.62 0 1.06-0.43 2.02-1.13 2.71-0.7 0.7-1.66 1.13-2.72 1.13s-2.02-0.43-2.72-1.13c-0.7-0.69-1.13-1.66-1.13-2.72s0.43-2.02 1.13-2.72 1.66-1.12 2.72-1.12z"/><path class="st2" d="m101.74 87.62c1.31 0 2.38 1.06 2.38 2.38s-1.06 2.38-2.38 2.38-2.38-1.06-2.38-2.38 1.07-2.38 2.38-2.38z"/><path class="st4" d="m92.09 77.23c0.75 0 1.43 0.31 1.92 0.8l0.01 0.01c0.49 0.49 0.8 1.17 0.8 1.92s-0.31 1.43-0.8 1.92h-0.01c-0.49 0.49-1.17 0.8-1.92 0.8s-1.43-0.31-1.92-0.8h-0.01c-0.49-0.49-0.8-1.18-0.8-1.92s0.31-1.43 0.8-1.92l0.01-0.01c0.49-0.49 1.17-0.8 1.92-0.8z"/><path class="st2" d="m92.09 78.7c0.7 0 1.26 0.57 1.26 1.26s-0.57 1.26-1.26 1.26-1.26-0.57-1.26-1.26 0.56-1.26 1.26-1.26z"/><path class="st4" d="m91.85 86.3c0.85 0 1.62 0.34 2.17 0.9l0.1 0.11c0.5 0.55 0.8 1.27 0.8 2.07 0 0.85-0.34 1.62-0.9 2.17l-0.11 0.1c-0.55 0.5-1.27 0.8-2.06 0.8-0.84 0-1.61-0.35-2.17-0.9-0.56-0.56-0.9-1.33-0.9-2.17s0.34-1.61 0.9-2.17c0.55-0.56 1.32-0.91 2.17-0.91z"/><path class="st2" d="m91.85 87.77c0.89 0 1.61 0.72 1.61 1.61s-0.72 1.61-1.61 1.61-1.61-0.72-1.61-1.61 0.72-1.61 1.61-1.61z"/><path class="st4" d="m90.73 41.77c1.06 0 2.02 0.43 2.71 1.13h0.01c0.7 0.7 1.13 1.66 1.13 2.72s-0.43 2.02-1.13 2.72c-0.7 0.69-1.66 1.13-2.72 1.13s-2.02-0.43-2.72-1.13c-0.69-0.7-1.13-1.66-1.13-2.72s0.43-2.02 1.13-2.72l0.1-0.09c0.69-0.65 1.61-1.04 2.62-1.04z"/><path class="st2" d="m90.73 43.23c1.31 0 2.38 1.06 2.38 2.38s-1.07 2.38-2.38 2.38-2.38-1.06-2.38-2.38 1.07-2.38 2.38-2.38z"/><path class="st4" d="m96.57 35.78c0.85 0 1.62 0.34 2.17 0.9 0.56 0.56 0.9 1.33 0.9 2.17 0 0.85-0.34 1.62-0.9 2.18s-1.33 0.9-2.17 0.9c-0.85 0-1.62-0.34-2.17-0.9s-0.9-1.33-0.9-2.18 0.34-1.62 0.9-2.17c0.55-0.55 1.32-0.9 2.17-0.9z"/><path class="st2" d="m96.57 37.25c0.89 0 1.61 0.72 1.61 1.61s-0.72 1.61-1.61 1.61-1.61-0.72-1.61-1.61 0.72-1.61 1.61-1.61z"/><path class="st4" d="m84.39 51.07h17.5c1.39 0 2.65 0.57 3.56 1.48s1.48 2.17 1.48 3.56-0.57 2.65-1.48 3.56c-0.06 0.06-0.11 0.11-0.17 0.16-0.9 0.82-2.09 1.32-3.38 1.32h-17.5c-1.38 0-2.64-0.57-3.55-1.48s-1.48-2.17-1.48-3.56 0.57-2.65 1.48-3.56c0.89-0.91 2.15-1.48 3.54-1.48z"/><path class="st5" d="m84.39 53.37h17.5c1.51 0 2.74 1.23 2.74 2.74s-1.23 2.74-2.74 2.74h-17.5c-1.51 0-2.74-1.23-2.74-2.74s1.23-2.74 2.74-2.74z"/><path class="st4" d="m47.23 44.29c-3.62 0.33-6.89 1.36-9.6 2.97-2.59 1.54-4.66 3.62-6.02 6.11-1.35 2.5-2 5.44-1.75 8.71 0.25 3.15 1.33 6.61 3.41 10.31 0.81-0.12 1.6-0.2 2.41-0.26 3.85-0.23 7.69 0.36 11.27 1.68 1.39 0.51 2.75 1.13 4.05 1.87h35.36c0.7 0 1.25 0.56 1.25 1.25v10.42c0 0.7-0.56 1.25-1.25 1.25h-23.48c1.34 2.94 2.24 6.21 2.59 9.78h24.76c0.31 0 0.62 0.11 0.86 0.35l12.11 11.53c0.28 0.23 0.46 0.58 0.46 0.97 0 0.7-0.56 1.25-1.25 1.25h-101.16v-0.01c-0.28 0-0.56-0.09-0.8-0.28-0.53-0.44-0.61-1.23-0.17-1.76l9.23-11.25c0.01-3.41 0.68-6.58 1.91-9.52 1.16-2.79 2.83-5.38 4.9-7.81-2.48-4.17-4.19-8.28-5.22-12.26-2.2-8.54-1.29-16.49 1.78-23.3 3.06-6.8 8.27-12.45 14.66-16.4 3.15-1.95 6.6-3.48 10.22-4.54l-0.79-1.57c-0.02-0.04-0.05-0.07-0.06-0.12-0.3-0.62-0.04-1.37 0.59-1.68l1.52-0.72-3.64-7.25-2.18 1.14c-0.04 0.03-0.08 0.05-0.12 0.06-0.62 0.3-1.37 0.05-1.67-0.58l-3.07-6.3c-0.29-0.6-0.06-1.34 0.54-1.66l12.36-6.5c0.03-0.02 0.05-0.03 0.07-0.05 0.61-0.31 1.37-0.06 1.68 0.55l3.2 6.28c0.31 0.61 0.07 1.35-0.54 1.67l-1.64 0.88 3.94 7.5 1.76-0.84c0.6-0.29 1.34-0.05 1.65 0.55l15.42 29.47 1.5-0.8c0.61-0.32 1.37-0.09 1.69 0.52l3.44 6.54 0.01 0.01c0.32 0.61 0.07 1.37-0.54 1.68l-18.26 9.45-0.04 0.02c-0.62 0.3-1.37 0.04-1.67-0.59l-3.11-6.43c-0.3-0.6-0.06-1.35 0.54-1.67l1.74-0.92-4.85-9.7z"/><path class="st1" d="m64.53 100.89c-0.05 0.01-0.1 0.02-0.15 0.02-0.1 0.01-0.2 0-0.29-0.02h-52.74l-7.45 9.09h95.37l-9.55-9.09h-25.19z"/><path class="st1" d="m18.91 82.67c-0.04 0.06-0.07 0.11-0.12 0.16-2.17 2.43-3.9 5.01-5.06 7.8-1.01 2.42-1.6 4.99-1.7 7.75h50.92c-0.72-6.94-3.74-12.62-8-16.7-2.57-2.45-5.6-4.32-8.86-5.52s-6.75-1.74-10.25-1.53c-5.99 0.36-12 2.91-16.93 8.04z"/><path class="st3" d="m54.73 78.18c0.67 0.53 1.32 1.09 1.94 1.68 1.89 1.79 3.54 3.88 4.91 6.22h23.52v-7.91h-30.37v0.01z"/><polygon class="st3" points="41.28 20.19 41.43 20.12 45.66 18.02 41.82 10.72 39 12.12 37.6 12.85 41.28 20.19"/><rect x="54.62" y="63.57" width="0" height="0"/><path class="st3" d="m54.29 52.81 0.85-0.45 9.42-5.02-14.86-28.38-7.49 3.57-0.94 0.47c-0.06 0.03-0.12 0.06-0.18 0.07l-1.35 0.65 14.55 29.09z"/><polygon class="st3" points="70.61 52.5 68.34 48.2 55.06 55.24 54.33 55.62 54.33 55.62 54.3 55.64 54.26 55.66 52.57 56.56 54.6 60.76 70.61 52.5"/><path class="st3" d="m38.89 27.62c-3.56 0.99-6.95 2.48-10.04 4.39-5.98 3.69-10.84 8.97-13.69 15.3s-3.69 13.71-1.64 21.66c0.92 3.55 2.42 7.23 4.58 10.98 3.8-3.63 8.13-5.92 12.6-7.05-2.01-3.76-3.08-7.34-3.34-10.64-0.29-3.77 0.46-7.18 2.04-10.09 1.57-2.9 3.97-5.3 6.95-7.08 2.77-1.65 6.07-2.75 9.68-3.2l-7.14-14.27z"/><path class="st3" d="m43.41 7.01-2.07-4.05-10.22 5.38 1.98 4.05 1.91-1c0.1-0.1 0.21-0.18 0.34-0.25l2.69-1.34 5.37-2.79z"/></svg>
