<svg enable-background="new 0 0 122.88 112.48" viewBox="0 0 122.88 112.48" xmlns="http://www.w3.org/2000/svg"><path d="m84.94 56.56h16.2c1.26 0 2.29 1.02 2.29 2.29v11.78c0 .45-.01.26-.02.84-.01.47-.01.73 0 .77.02.06.2.35.61.97l16.95 26.07.1.14c1.26 2.02 1.85 4.06 1.8 5.88-.03 1.15-.29 2.22-.8 3.15-.52.97-1.28 1.79-2.27 2.4-1.22.76-2.79 1.19-4.66 1.18l-.17.01h-40.1-1.09c-2.81.05-5.5.1-8.1-2.18-1.47-1.29-2.32-3.02-2.3-5.08.01-1.69.62-3.54 2-5.48 5.56-8.7 11.65-17.65 16.91-26.47.27-.42.36-.51.38-.56.01-.05-.02-.11-.02-.41v-.61l.01-12.22c-.01-.07-.01-.13-.01-.2 0-1.25 1.03-2.27 2.29-2.27z" fill="#324768"/><path clip-rule="evenodd" d="m101.14 58.85h-16.2l-.01 12.42c0 1.77.14 1.48-.81 2.97l-16.87 26.4c-2.28 3.2-1.91 5.87-.04 7.51 2.24 1.98 4.92 1.61 7.68 1.61h40.1c5.5.12 7.12-4.35 4.15-9.13l-16.87-25.93c-1.32-2.03-1.13-1.63-1.13-4.06z" fill="#fff" fill-rule="evenodd"/><path clip-rule="evenodd" d="m72.69 92.08-5.47 8.56c-2.28 3.2-1.91 5.87-.04 7.51 2.24 1.98 4.92 1.61 7.68 1.61h40.1c5.5.12 7.12-4.35 4.15-9.13l-5.56-8.55z" fill="#8bbcdb" fill-rule="evenodd"/><path d="m80.16 80.65c-.61 0-1.1-.49-1.1-1.1s.49-1.1 1.1-1.1h4.33c.61 0 1.1.49 1.1 1.1s-.49 1.1-1.1 1.1z" fill="#262626"/><path d="m77.17 85.44c-.61 0-1.1-.49-1.1-1.1s.49-1.1 1.1-1.1h5.54c.61 0 1.1.49 1.1 1.1s-.49 1.1-1.1 1.1z" fill="#262626"/><path d="m100.41 98.57c1.35 0 2.57.55 3.46 1.43.88.89 1.43 2.11 1.43 3.46s-.55 2.57-1.43 3.46-2.11 1.43-3.46 1.43c-1.34 0-2.57-.55-3.45-1.44-.88-.88-1.43-2.11-1.43-3.46s.55-2.57 1.43-3.46c.88-.87 2.1-1.42 3.45-1.42z" fill="#324768"/><path clip-rule="evenodd" d="m100.41 100.03c1.89 0 3.42 1.53 3.42 3.42s-1.53 3.42-3.42 3.42-3.42-1.53-3.42-3.42 1.53-3.42 3.42-3.42z" fill="#8bbcdb" fill-rule="evenodd"/><path d="m112.04 98.52c.77 0 1.46.31 1.96.81s.81 1.2.81 1.96-.31 1.46-.81 1.96-1.2.81-1.96.81-1.46-.31-1.96-.81-.81-1.2-.81-1.96.31-1.46.81-1.96 1.19-.81 1.96-.81z" fill="#324768"/><path clip-rule="evenodd" d="m112.04 99.98c.72 0 1.31.59 1.31 1.31s-.59 1.31-1.31 1.31-1.31-.59-1.31-1.31.59-1.31 1.31-1.31z" fill="#8bbcdb" fill-rule="evenodd"/><path d="m101.74 86.16c1.06 0 2.02.43 2.72 1.13l.09.1c.64.69 1.04 1.61 1.04 2.62 0 1.06-.43 2.02-1.13 2.71-.7.7-1.66 1.13-2.72 1.13s-2.02-.43-2.72-1.13c-.7-.69-1.13-1.66-1.13-2.72s.43-2.02 1.13-2.72 1.66-1.12 2.72-1.12z" fill="#324768"/><path clip-rule="evenodd" d="m101.74 87.62c1.31 0 2.38 1.06 2.38 2.38s-1.06 2.38-2.38 2.38-2.38-1.06-2.38-2.38 1.07-2.38 2.38-2.38z" fill="#8bbcdb" fill-rule="evenodd"/><path d="m92.09 77.23c.75 0 1.43.31 1.92.8l.01.01c.49.49.8 1.17.8 1.92s-.31 1.43-.8 1.92h-.01c-.49.49-1.17.8-1.92.8s-1.43-.31-1.92-.8h-.01c-.49-.49-.8-1.18-.8-1.92s.31-1.43.8-1.92l.01-.01c.49-.49 1.17-.8 1.92-.8z" fill="#324768"/><path clip-rule="evenodd" d="m92.09 78.7c.7 0 1.26.57 1.26 1.26s-.57 1.26-1.26 1.26-1.26-.57-1.26-1.26.56-1.26 1.26-1.26z" fill="#8bbcdb" fill-rule="evenodd"/><path d="m91.85 86.3c.85 0 1.62.34 2.17.9l.1.11c.5.55.8 1.27.8 2.07 0 .85-.34 1.62-.9 2.17l-.11.1c-.55.5-1.27.8-2.06.8-.84 0-1.61-.35-2.17-.9-.56-.56-.9-1.33-.9-2.17s.34-1.61.9-2.17c.55-.56 1.32-.91 2.17-.91z" fill="#324768"/><path clip-rule="evenodd" d="m91.85 87.77c.89 0 1.61.72 1.61 1.61s-.72 1.61-1.61 1.61-1.61-.72-1.61-1.61.72-1.61 1.61-1.61z" fill="#8bbcdb" fill-rule="evenodd"/><path d="m90.73 41.77c1.06 0 2.02.43 2.71 1.13h.01c.7.7 1.13 1.66 1.13 2.72s-.43 2.02-1.13 2.72c-.7.69-1.66 1.13-2.72 1.13s-2.02-.43-2.72-1.13c-.69-.7-1.13-1.66-1.13-2.72s.43-2.02 1.13-2.72l.1-.09c.69-.65 1.61-1.04 2.62-1.04z" fill="#324768"/><path clip-rule="evenodd" d="m90.73 43.23c1.31 0 2.38 1.06 2.38 2.38s-1.07 2.38-2.38 2.38-2.38-1.06-2.38-2.38 1.07-2.38 2.38-2.38z" fill="#8bbcdb" fill-rule="evenodd"/><path d="m96.57 35.78c.85 0 1.62.34 2.17.9.56.56.9 1.33.9 2.17 0 .85-.34 1.62-.9 2.18s-1.33.9-2.17.9c-.85 0-1.62-.34-2.17-.9s-.9-1.33-.9-2.18.34-1.62.9-2.17c.55-.55 1.32-.9 2.17-.9z" fill="#324768"/><path clip-rule="evenodd" d="m96.57 37.25c.89 0 1.61.72 1.61 1.61s-.72 1.61-1.61 1.61-1.61-.72-1.61-1.61.72-1.61 1.61-1.61z" fill="#8bbcdb" fill-rule="evenodd"/><path d="m84.39 51.07h17.5c1.39 0 2.65.57 3.56 1.48s1.48 2.17 1.48 3.56-.57 2.65-1.48 3.56c-.06.06-.11.11-.17.16-.9.82-2.09 1.32-3.38 1.32h-17.5c-1.38 0-2.64-.57-3.55-1.48s-1.48-2.17-1.48-3.56.57-2.65 1.48-3.56c.89-.91 2.15-1.48 3.54-1.48z" fill="#324768"/><path clip-rule="evenodd" d="m84.39 53.37h17.5c1.51 0 2.74 1.23 2.74 2.74s-1.23 2.74-2.74 2.74h-17.5c-1.51 0-2.74-1.23-2.74-2.74s1.23-2.74 2.74-2.74z" fill="#fff" fill-rule="evenodd"/><path d="m47.23 44.29c-3.62.33-6.89 1.36-9.6 2.97-2.59 1.54-4.66 3.62-6.02 6.11-1.35 2.5-2 5.44-1.75 8.71.25 3.15 1.33 6.61 3.41 10.31.81-.12 1.6-.2 2.41-.26 3.85-.23 7.69.36 11.27 1.68 1.39.51 2.75 1.13 4.05 1.87h35.36c.7 0 1.25.56 1.25 1.25v10.42c0 .7-.56 1.25-1.25 1.25h-23.48c1.34 2.94 2.24 6.21 2.59 9.78h24.76c.31 0 .62.11.86.35l12.11 11.53c.28.23.46.58.46.97 0 .7-.56 1.25-1.25 1.25h-101.16v-.01c-.28 0-.56-.09-.8-.28-.53-.44-.61-1.23-.17-1.76l9.23-11.25c.01-3.41.68-6.58 1.91-9.52 1.16-2.79 2.83-5.38 4.9-7.81-2.48-4.17-4.19-8.28-5.22-12.26-2.2-8.54-1.29-16.49 1.78-23.3 3.06-6.8 8.27-12.45 14.66-16.4 3.15-1.95 6.6-3.48 10.22-4.54l-.79-1.57c-.02-.04-.05-.07-.06-.12-.3-.62-.04-1.37.59-1.68l1.52-.72-3.64-7.25-2.18 1.14c-.04.03-.08.05-.12.06-.62.3-1.37.05-1.67-.58l-3.07-6.3c-.29-.6-.06-1.34.54-1.66l12.36-6.5c.03-.02.05-.03.07-.05.61-.31 1.37-.06 1.68.55l3.2 6.28c.31.61.07 1.35-.54 1.67l-1.64.88 3.94 7.5 1.76-.84c.6-.29 1.34-.05 1.65.55l15.42 29.47 1.5-.8c.61-.32 1.37-.09 1.69.52l3.44 6.54.01.01c.32.61.07 1.37-.54 1.68l-18.26 9.45-.04.02c-.62.3-1.37.04-1.67-.59l-3.11-6.43c-.3-.6-.06-1.35.54-1.67l1.74-.92z" fill="#324768"/><path d="m64.53 100.89c-.05.01-.1.02-.15.02-.1.01-.2 0-.29-.02h-52.74l-7.45 9.09h95.37l-9.55-9.09z" fill="#f86464"/><path d="m18.91 82.67c-.04.06-.07.11-.12.16-2.17 2.43-3.9 5.01-5.06 7.8-1.01 2.42-1.6 4.99-1.7 7.75h50.92c-.72-6.94-3.74-12.62-8-16.7-2.57-2.45-5.6-4.32-8.86-5.52s-6.75-1.74-10.25-1.53c-5.99.36-12 2.91-16.93 8.04z" fill="#f86464"/><g fill="#61c4f2"><path d="m54.73 78.18c.67.53 1.32 1.09 1.94 1.68 1.89 1.79 3.54 3.88 4.91 6.22h23.52v-7.91h-30.37z"/><path d="m41.28 20.19.15-.07 4.23-2.1-3.84-7.3-2.82 1.4-1.4.73z"/><path d="m54.29 52.81.85-.45 9.42-5.02-14.86-28.38-7.49 3.57-.94.47c-.06.03-.12.06-.18.07l-1.35.65z"/><path d="m70.61 52.5-2.27-4.3-13.28 7.04-.73.38-.03.02-.04.02-1.69.9 2.03 4.2z"/><path d="m38.89 27.62c-3.56.99-6.95 2.48-10.04 4.39-5.98 3.69-10.84 8.97-13.69 15.3s-3.69 13.71-1.64 21.66c.92 3.55 2.42 7.23 4.58 10.98 3.8-3.63 8.13-5.92 12.6-7.05-2.01-3.76-3.08-7.34-3.34-10.64-.29-3.77.46-7.18 2.04-10.09 1.57-2.9 3.97-5.3 6.95-7.08 2.77-1.65 6.07-2.75 9.68-3.2z"/><path d="m43.41 7.01-2.07-4.05-10.22 5.38 1.98 4.05 1.91-1c.1-.1.21-.18.34-.25l2.69-1.34z"/></g></svg>